<?xml version="1.0" encoding="UTF-8"?>
<svg width="700pt" height="700pt" version="1.1" viewBox="0 0 700 700" xmlns="http://www.w3.org/2000/svg" xmlns:xlink="http://www.w3.org/1999/xlink">
 <g>
  <path d="m667.19 0-2.1875 24.062c-201.25 148.75-308.44 332.5-385 490-45.938 30.625-78.75 72.188-98.438 24.062-24.062-63.438-76.562-183.75-148.75-207.81 30.625-35 59.062-43.75 94.062-39.375 45.938 6.5625 87.5 94.062 105 133.44 94.062-157.5 266.88-336.88 435.31-424.38z"/>
  <use x="32.8125" y="592.8125" xlink:href="#v"/>
  <use x="40.839844" y="592.8125" xlink:href="#c"/>
  <use x="46.234375" y="592.8125" xlink:href="#a"/>
  <use x="53.652344" y="592.8125" xlink:href="#i"/>
  <use x="61.03125" y="592.8125" xlink:href="#b"/>
  <use x="66.261719" y="592.8125" xlink:href="#a"/>
  <use x="73.679688" y="592.8125" xlink:href="#h"/>
  <use x="85.316406" y="592.8125" xlink:href="#g"/>
  <use x="93.144531" y="592.8125" xlink:href="#f"/>
  <use x="104.082031" y="592.8125" xlink:href="#e"/>
  <use x="112.503906" y="592.8125" xlink:href="#u"/>
  <use x="121.386719" y="592.8125" xlink:href="#t"/>
  <use x="128.355469" y="592.8125" xlink:href="#s"/>
  <use x="32.8125" y="603.75" xlink:href="#r"/>
  <use x="37.570312" y="603.75" xlink:href="#c"/>
  <use x="42.964844" y="603.75" xlink:href="#d"/>
  <use x="50.480469" y="603.75" xlink:href="#q"/>
  <use x="65.683594" y="603.75" xlink:href="#b"/>
  <use x="70.914062" y="603.75" xlink:href="#p"/>
  <use x="78.699219" y="603.75" xlink:href="#a"/>
  <use x="89.925781" y="603.75" xlink:href="#o"/>
  <use x="99.078125" y="603.75" xlink:href="#d"/>
  <use x="106.59375" y="603.75" xlink:href="#n"/>
  <use x="114.378906" y="603.75" xlink:href="#m"/>
  <use x="125.972656" y="603.75" xlink:href="#l"/>
  <use x="133.988281" y="603.75" xlink:href="#c"/>
  <use x="139.382812" y="603.75" xlink:href="#d"/>
  <use x="146.898438" y="603.75" xlink:href="#k"/>
  <use x="150.648438" y="603.75" xlink:href="#a"/>
  <use x="158.066406" y="603.75" xlink:href="#j"/>
  <use x="164.546875" y="603.75" xlink:href="#b"/>
 </g>
</svg>
